<svg width="192" height="192" xmlns="http://www.w3.org/2000/svg">

 <g>
  <title>background</title>
  <circle fill="#000000" id="canvas_background" height="58.693" width="58.693" cx="30" cy="30" r="20"/>
  
 </g>
 <g>

  <path fill="#ffffff" id="svg_1" d="m28.347,5.155c-13.6,0 -24.625,11.025 -24.625,24.625c0,13.602 11.025,24.625 24.625,24.625c13.6,0 24.625,-11.023 24.625,-24.625c0,-13.6 -11.026,-24.625 -24.625,-24.625zm1.412,9.986c1.117,-1.311 3.006,-2.283 4.564,-2.346c0.199,1.816 -0.533,3.637 -1.613,4.947c-1.084,1.309 -2.857,2.328 -4.598,2.193c-0.234,-1.778 0.643,-3.634 1.647,-4.794zm8.867,24.799c-1.293,1.889 -2.633,3.771 -4.744,3.809c-2.076,0.039 -2.744,-1.23 -5.115,-1.23c-2.373,0 -3.115,1.193 -5.08,1.27c-2.037,0.076 -3.589,-2.037 -4.892,-3.92c-2.665,-3.848 -4.698,-10.875 -1.964,-15.619c1.354,-2.358 3.78,-3.846 6.411,-3.887c2.004,-0.037 3.893,1.35 5.115,1.35c1.225,0 3.521,-1.666 5.936,-1.42c1.01,0.041 3.846,0.406 5.668,3.071c-0.146,0.092 -3.387,1.977 -3.348,5.902c0.043,4.689 4.113,6.246 4.16,6.27c-0.038,0.106 -0.653,2.221 -2.147,4.404z"/>
 </g>
</svg>